<?xml version="1.0" encoding="UTF-8"?>
<svg version="1.1" xmlns="http://www.w3.org/2000/svg" width="726" height="732">
<path d="M0 0 C239.58 0 479.16 0 726 0 C726 241.56 726 483.12 726 732 C486.42 732 246.84 732 0 732 C0 490.44 0 248.88 0 0 Z " fill="#919685" transform="translate(0,0)"/>
<path d="M0 0 C152.06793478 0 152.06793478 0 171.6484375 18.5859375 C183.59545119 30.85047979 189.6428787 44.54366939 190.09765625 61.6796875 C189.50378889 74.68683113 185.70602431 85.5394819 178 96 C177.47664062 96.71929687 176.95328125 97.43859375 176.4140625 98.1796875 C171.6164855 104.19421086 165.44212617 107.925406 159 112 C158.67 112.33 158.34 112.66 158 113 C158.81984375 113.33773437 159.6396875 113.67546875 160.484375 114.0234375 C161.56203125 114.46945312 162.6396875 114.91546875 163.75 115.375 C164.81734375 115.81585938 165.8846875 116.25671875 166.984375 116.7109375 C169.37555926 117.73307585 171.69383183 118.80213595 174 120 C174 120.66 174 121.32 174 122 C174.70125 122.226875 175.4025 122.45375 176.125 122.6875 C179.74128535 124.33841288 182.08769976 126.2908835 185 129 C185 129.66 185 130.32 185 131 C185.66 131 186.32 131 187 131 C187 131.66 187 132.32 187 133 C187.66 133 188.32 133 189 133 C200.72593792 145.99825377 201.62140369 163.52741432 201 180 C199.94908379 193.95478905 193.69251244 206.30292494 185 217 C184.58105469 217.58136719 184.16210938 218.16273438 183.73046875 218.76171875 C174.4829963 231.21149615 158.43972289 235.99724417 144 239 C100.58952608 245.20149627 34.07276768 241 0 241 C0 161.47 0 81.94 0 0 Z " fill="#FEFEFE" transform="translate(367,152)"/>
<path d="M0 0 C239.58 0 479.16 0 726 0 C726 241.56 726 483.12 726 732 C486.42 732 246.84 732 0 732 C0 490.44 0 248.88 0 0 Z M116.5625 9.75 C115.57008301 10.09289063 114.57766602 10.43578125 113.55517578 10.7890625 C104.9719033 13.8389139 96.95690478 17.59276489 89 22 C87.79081497 22.64407544 86.58118051 23.28730784 85.37109375 23.9296875 C72.03432093 31.13801687 60.92962432 40.60893688 50 51 C49.31679688 51.61875 48.63359375 52.2375 47.9296875 52.875 C29.53711237 70.11322941 17.37068407 93.55245083 9 117 C8.59265625 118.09957031 8.1853125 119.19914062 7.765625 120.33203125 C-0.01847457 143.17536962 0.4132227 166.79323966 0.47710133 190.58677793 C0.48625184 195.64073344 0.47213316 200.69463632 0.46118164 205.74858093 C0.44349728 215.61853916 0.44719111 225.48837496 0.4588322 235.35833776 C0.46790625 243.38773111 0.46907345 251.41709041 0.46473694 259.44648743 C0.46412401 260.59405617 0.46351107 261.74162491 0.46287957 262.92396846 C0.46160053 265.25603037 0.46030367 267.58809227 0.4589892 269.92015415 C0.44761294 291.73168042 0.46065058 313.54313918 0.48219067 335.35465437 C0.50005893 354.02536976 0.49695399 372.69598563 0.47851562 391.36669922 C0.45705654 413.10602945 0.4487113 434.84530068 0.46096468 456.58464003 C0.46223873 458.90759753 0.46349622 461.23055505 0.46473694 463.55351257 C0.46535404 464.69612546 0.46597114 465.83873834 0.46660694 467.01597586 C0.47004476 475.02550174 0.46426553 483.03498986 0.45481873 491.04450989 C0.44354118 500.82007912 0.4467588 510.59552006 0.4679417 520.3710748 C0.47837523 525.3482106 0.48270723 530.32513337 0.46934509 535.30226707 C0.33934645 588.15181733 12.22899086 632.48869035 49 672 C49.65097656 672.71671875 50.30195312 673.4334375 50.97265625 674.171875 C73.26066616 697.70526504 103.77999935 711.94884863 135 719 C136.03640625 719.23460937 137.0728125 719.46921875 138.140625 719.7109375 C150.9181747 722.28886419 164.04847759 722.15047972 177.02909851 722.15390015 C178.70898294 722.15792539 180.38886642 722.16236533 182.06874877 722.1671797 C186.64823432 722.17903225 191.2277094 722.18476698 195.80720723 722.18936086 C200.76117764 722.19536016 205.71513582 722.20695863 210.6690979 722.21765137 C222.61306546 722.24207328 234.55703704 722.25678554 246.50102183 722.26971143 C249.88010916 722.27343023 253.25919609 722.27740286 256.63828301 722.2814641 C277.66946613 722.30670268 298.70065 722.32873257 319.7318449 722.34119225 C324.59344676 722.3441214 329.45504859 722.34708315 334.31665039 722.35009766 C335.52481243 722.35084371 336.73297447 722.35158976 337.97774748 722.35235842 C357.52960407 722.3650001 377.08136948 722.3982141 396.6331835 722.43989949 C416.75362846 722.48244215 436.87402688 722.50590126 456.99451667 722.51111281 C468.27243008 722.51451246 479.55020085 722.52609635 490.82806969 722.55921555 C500.43612181 722.58738694 510.04400198 722.59814096 519.65209218 722.58702008 C524.54264041 722.58187729 529.43282953 722.58443054 534.3233242 722.60948563 C570.09225775 722.7825193 603.2096494 718.80859924 635 701 C635.64404785 700.64292969 636.2880957 700.28585937 636.95166016 699.91796875 C645.66712469 695.03748107 653.48743423 689.62670426 661 683 C661.85207031 682.2575 662.70414063 681.515 663.58203125 680.75 C666.08747377 678.53320293 668.54988219 676.27768726 671 674 C671.71542969 673.3503125 672.43085937 672.700625 673.16796875 672.03125 C699.42441372 647.1617575 714.36543741 612.20022611 720 577 C720.17088192 575.94003522 720.34176384 574.88007043 720.51782399 573.7879855 C720.99004401 570.07821448 721.126492 566.54477527 721.12863445 562.80702686 C721.13038749 562.11439705 721.13214053 561.42176723 721.13394669 560.70814863 C721.13858786 558.39393856 721.13614603 556.07979185 721.13371277 553.76557922 C721.13558172 552.08674782 721.13788276 550.40791686 721.14057809 548.72908658 C721.14669269 544.12026564 721.14656288 539.51146286 721.14538372 534.90263879 C721.14517961 529.92959652 721.15069962 524.95656007 721.15544128 519.98352051 C721.16374791 510.23941584 721.16649618 500.49531721 721.16705366 490.7512093 C721.16752907 482.82486831 721.1695851 474.89852931 721.17275429 466.97218895 C721.18156301 444.48180911 721.18617364 421.99143405 721.18542381 399.50105248 C721.18538386 398.28858358 721.1853439 397.07611468 721.18530273 395.8269043 C721.18526185 394.61294757 721.18522097 393.39899085 721.18517885 392.14824756 C721.18477293 372.50072195 721.1943284 352.85321555 721.2084411 333.20569549 C721.22282945 313.01431436 721.22970985 292.82294259 721.22884732 272.63155621 C721.22851607 261.30295481 721.23123129 249.97437352 721.24202538 238.64577675 C721.25116304 228.9938391 721.25327914 219.34193067 721.24651595 209.68999056 C721.24326639 204.77212166 721.24313687 199.8543087 721.2518692 194.93644524 C721.74402742 162.50559979 721.74402742 162.50559979 716.875 130.5625 C716.66182129 129.70599854 716.44864258 128.84949707 716.22900391 127.96704102 C708.47743073 98.21651402 693.19255401 73.02298324 672 51 C671.38382813 50.32066406 670.76765625 49.64132813 670.1328125 48.94140625 C653.37431106 31.02843026 630.82933814 19.12844718 608 11 C607.29246582 10.74492676 606.58493164 10.48985352 605.85595703 10.22705078 C595.44975448 6.53742043 584.93517112 4.43050565 574 3 C572.99725942 2.8663334 572.99725942 2.8663334 571.97426146 2.72996646 C563.76712808 1.77297574 555.55958525 1.85136369 547.31111145 1.85282898 C545.61945423 1.84952484 543.92779779 1.84579812 542.23614234 1.8416875 C537.60569034 1.83172189 532.9752513 1.82795953 528.3447901 1.82529819 C523.34311035 1.82137889 518.34144071 1.81180175 513.33976746 1.80308533 C501.26956376 1.7833666 489.19935928 1.77326051 477.12914351 1.76435754 C471.43537071 1.75996708 465.74159884 1.75460224 460.04782677 1.74936867 C441.10387903 1.73236093 422.15993186 1.71786875 403.21597767 1.71061993 C398.3051993 1.70871025 393.39442093 1.70678989 388.48364258 1.70483398 C386.65297488 1.70410837 386.65297488 1.70410837 384.785324 1.7033681 C365.03329731 1.69507513 345.28133133 1.66974854 325.52933113 1.63725331 C305.2191894 1.60411409 284.90907845 1.58616497 264.59890956 1.58297569 C253.20818767 1.58081693 241.81755432 1.57216159 230.4268589 1.54651451 C220.7223584 1.52471357 211.01796794 1.51680301 201.31344572 1.52648129 C196.37081544 1.53099892 191.42841174 1.52928927 186.48581314 1.50971985 C162.59550549 1.42034877 139.36492555 1.61896657 116.5625 9.75 Z " fill="#171717" transform="translate(0,0)"/>
<path d="M0 0 C54.45 0 108.9 0 165 0 C165 13.53 165 27.06 165 41 C126.39 41 87.78 41 48 41 C48 59.81 48 78.62 48 98 C81.33 98 114.66 98 149 98 C149 111.2 149 124.4 149 138 C115.67 138 82.34 138 48 138 C48 171.99 48 205.98 48 241 C32.16 241 16.32 241 0 241 C0 161.47 0 81.94 0 0 Z " fill="#FEFEFE" transform="translate(162,152)"/>
<path d="M0 0 C10.415625 -0.04125 20.83125 -0.0825 31.5625 -0.125 C34.81939697 -0.14320801 38.07629395 -0.16141602 41.43188477 -0.18017578 C44.06005693 -0.18602583 46.68823092 -0.19112016 49.31640625 -0.1953125 C49.97632065 -0.20053925 50.63623505 -0.20576599 51.31614685 -0.21115112 C66.38819343 -0.32428395 81.48175633 -0.42546694 93.34765625 10.078125 C100.21824736 17.21057167 102.09439577 23.54206911 102.5625 33.3125 C102.37412875 41.84058019 99.84341106 48.37107427 94.39453125 54.93359375 C83.42444895 65.382532 67.85122855 64.14746797 53.80859375 64.09765625 C52.25204006 64.09578789 50.69548577 64.09436597 49.13893127 64.09336853 C45.07016333 64.08957622 41.00143189 64.07977453 36.93267822 64.06866455 C32.03580225 64.0565664 27.13891397 64.05203253 22.24202728 64.04621124 C14.82799291 64.03656059 7.41403841 64.01738118 0 64 C0 42.88 0 21.76 0 0 Z " fill="#96987C" transform="translate(416,288)"/>
<path d="M0 0 C7.98964564 -0.0466646 15.97923283 -0.08204041 23.96898174 -0.10362434 C27.68029842 -0.11399175 31.39152078 -0.12801946 35.1027832 -0.15087891 C38.69490782 -0.17286208 42.28694263 -0.18462133 45.87912941 -0.18975449 C47.89338268 -0.19516258 49.90760062 -0.21073301 51.92179871 -0.22659302 C78.1229031 -0.22973347 78.1229031 -0.22973347 87.578125 8.38671875 C93.70830839 15.34211913 94.70894213 22.43278805 94.34375 31.5078125 C93.67860354 38.2650959 92.31579573 42.07108298 87.3125 46.75 C75.64616572 56.04495599 62.78769111 56.3110944 48.30078125 56.23046875 C46.93027286 56.22927323 45.55976364 56.22882457 44.18925476 56.2290802 C41.3462496 56.22753117 38.50337321 56.21935528 35.66040039 56.20581055 C32.01082402 56.18864357 28.36138593 56.18500211 24.71177387 56.18575573 C21.89546889 56.18548477 19.07919431 56.18001838 16.2628994 56.17275429 C14.2613957 56.16802339 12.25988565 56.16629245 10.25837708 56.16459656 C9.05589828 56.15821671 7.85341949 56.15183685 6.61450195 56.14526367 C5.01998955 56.13954597 5.01998955 56.13954597 3.39326477 56.13371277 C1 56 1 56 0 55 C-0.0935919 53.28134591 -0.11744611 51.55884256 -0.11352539 49.83764648 C-0.11344986 48.73658066 -0.11337433 47.63551483 -0.11329651 46.50108337 C-0.10813522 45.3031868 -0.10297394 44.10529022 -0.09765625 42.87109375 C-0.0962413 41.65172623 -0.09482635 40.4323587 -0.09336853 39.17604065 C-0.08774967 35.2631693 -0.07519396 31.35035419 -0.0625 27.4375 C-0.05748743 24.79231853 -0.0529241 22.14713617 -0.04882812 19.50195312 C-0.03777411 13.00128274 -0.02101764 6.50064539 0 0 Z " fill="#8D968C" transform="translate(415,192)"/>
</svg>
